<svg width="60" height="60" viewBox="0 0 60 60" fill="none" xmlns="http://www.w3.org/2000/svg">
<g clip-path="url(#clip0_215_12)">
<path fill-rule="evenodd" clip-rule="evenodd" d="M30.0015 0C13.434 0 0 13.434 0 30C0 46.566 13.434 60 30.0015 60C46.566 60 60 46.566 60 30C60 13.434 46.566 0 30.0015 0ZM30.0015 55.992C15.648 55.992 4.008 44.352 4.008 29.9985C4.008 15.6465 15.648 4.0065 30.0015 4.0065C44.3535 4.0065 55.992 15.6465 55.992 29.9985C55.992 44.3535 44.3535 55.992 30.0015 55.992Z" fill="black"/>
<path fill-rule="evenodd" clip-rule="evenodd" d="M30.0015 7.90051C17.7975 7.90051 7.90051 17.796 7.90051 30C7.90051 42.204 17.796 52.0995 30.0015 52.0995C42.204 52.0995 52.0995 42.204 52.0995 30C52.0995 17.7975 42.2025 7.90051 30.0015 7.90051ZM30 48.1335C19.986 48.1335 11.8665 40.0125 11.8665 29.9985C11.8665 19.986 19.986 11.8665 30 11.8665C40.0125 11.8665 48.1335 19.986 48.1335 29.9985C48.1335 40.0125 40.0125 48.1335 30 48.1335Z" fill="black"/>
<path fill-rule="evenodd" clip-rule="evenodd" d="M37.173 26.5965C36.156 26.5965 35.259 26.2425 34.5255 25.509C33.7935 24.729 33.4155 23.808 33.4155 22.791C33.4155 21.9345 33.6735 21.174 34.173 20.5365C32.805 19.914 31.311 19.6005 29.6805 19.6005C26.7495 19.6005 24.198 20.64 22.0935 22.7205C20.037 24.8235 18.9975 27.3525 18.9975 30.2835C18.9975 33.261 20.037 35.814 22.0935 37.917C24.198 39.9975 26.7495 41.037 29.6805 41.037C32.658 41.037 35.1885 39.996 37.314 37.917C39.3945 35.814 40.41 33.261 40.41 30.2835C40.41 28.686 40.1055 27.2085 39.495 25.854C38.8425 26.3535 38.073 26.5965 37.173 26.5965Z" fill="black"/>
</g>
<defs>
<clipPath id="clip0_215_12">
<rect width="60" height="60" fill="white"/>
</clipPath>
</defs>
</svg>
